<svg width="20" height="20" viewBox="0 0 20 20" fill="none" xmlns="http://www.w3.org/2000/svg">
<g id="address-card" clip-path="url(#clip0_740_3080)">
<path id="Vector" d="M18.3333 2.22223H1.66667C0.746528 2.22223 0 2.96876 0 3.8889V16.1111C0 17.0313 0.746528 17.7778 1.66667 17.7778H18.3333C19.2535 17.7778 20 17.0313 20 16.1111V3.8889C20 2.96876 19.2535 2.22223 18.3333 2.22223ZM6.11111 5.55556C7.33681 5.55556 8.33333 6.55209 8.33333 7.77778C8.33333 9.00348 7.33681 10 6.11111 10C4.88542 10 3.88889 9.00348 3.88889 7.77778C3.88889 6.55209 4.88542 5.55556 6.11111 5.55556ZM10 13.7778C10 14.1458 9.65278 14.4445 9.22222 14.4445H3C2.56944 14.4445 2.22222 14.1458 2.22222 13.7778V13.1111C2.22222 12.007 3.26736 11.1111 4.55556 11.1111H4.72917C5.15625 11.2882 5.62153 11.3889 6.11111 11.3889C6.60069 11.3889 7.06944 11.2882 7.49306 11.1111H7.66667C8.95486 11.1111 10 12.007 10 13.1111V13.7778ZM17.7778 11.9445C17.7778 12.0972 17.6528 12.2222 17.5 12.2222H12.5C12.3472 12.2222 12.2222 12.0972 12.2222 11.9445V11.3889C12.2222 11.2361 12.3472 11.1111 12.5 11.1111H17.5C17.6528 11.1111 17.7778 11.2361 17.7778 11.3889V11.9445ZM17.7778 9.72223C17.7778 9.87501 17.6528 10 17.5 10H12.5C12.3472 10 12.2222 9.87501 12.2222 9.72223V9.16667C12.2222 9.0139 12.3472 8.8889 12.5 8.8889H17.5C17.6528 8.8889 17.7778 9.0139 17.7778 9.16667V9.72223ZM17.7778 7.50001C17.7778 7.65278 17.6528 7.77778 17.5 7.77778H12.5C12.3472 7.77778 12.2222 7.65278 12.2222 7.50001V6.94445C12.2222 6.79167 12.3472 6.66667 12.5 6.66667H17.5C17.6528 6.66667 17.7778 6.79167 17.7778 6.94445V7.50001Z" fill="#02ADFD"/>
</g>
<defs>
<clipPath id="clip0_740_3080">
<rect width="20" height="20" fill="white"/>
</clipPath>
</defs>
</svg>
