<svg xmlns="http://www.w3.org/2000/svg" width="30" height="28" viewBox="0 0 30 28" fill="none">
  <path d="M5.49352 25.5556L5.51231 25.5906L5.53382 25.6241C6.2433 26.7277 7.56456 26.8266 8.47475 26.4868L8.54052 26.4623L8.60221 26.4288L15 22.9546L21.3978 26.4288L21.4245 26.4433L21.4521 26.4562C21.6405 26.5441 21.8256 26.6078 22.0338 26.6402C22.2064 26.667 22.3706 26.6668 22.4784 26.6667C22.4858 26.6667 22.4931 26.6667 22.5 26.6667C23.0824 26.6667 23.6536 26.4828 24.0886 26.0769C24.5298 25.6651 24.75 25.0989 24.75 24.5V5.83333C24.75 3.23385 22.6112 1.33333 20 1.33333H10C7.38882 1.33333 5.25 3.23385 5.25 5.83333V24.5C5.25 24.5066 5.24999 24.5137 5.24997 24.5211C5.24977 24.6208 5.24943 24.7896 5.2812 24.9675C5.31996 25.1845 5.39551 25.3726 5.49352 25.5556Z" fill="white" stroke="black" stroke-width="2"/>
</svg>