<svg xmlns="http://www.w3.org/2000/svg" width="51" height="51" viewBox="0 0 51 51" fill="none">
  <path d="M35.3281 35.0313C35.2749 35.2128 35.1855 35.3818 35.0654 35.5281C34.9453 35.6743 34.7969 35.7948 34.6292 35.8823C34.4614 35.9699 34.2777 36.0226 34.089 36.0375C33.9004 36.0523 33.7107 36.029 33.5312 35.9688H33.4531C33.1019 35.8186 32.8221 35.5387 32.6719 35.1875H32.5938L29.625 30.3438C29.4961 30.1418 29.2947 29.9969 29.0622 29.9387C28.8297 29.8806 28.5838 29.9137 28.375 30.0312C28.1801 30.1845 28.0431 30.3993 27.9863 30.6406C27.9295 30.8819 27.9564 31.1353 28.0625 31.3594L31.0313 36.125L31.5 36.8281L31.3438 37.1406C31.1952 37.3817 30.9774 37.5723 30.7188 37.6875C30.5594 37.7956 30.3744 37.8598 30.1824 37.8735C29.9903 37.8872 29.7981 37.85 29.625 37.7656C29.2835 37.641 29.0035 37.389 28.8437 37.0625H28.7656L25.7969 32.1406C25.7546 32.0052 25.6821 31.8811 25.5849 31.7777C25.4877 31.6743 25.3683 31.5943 25.2357 31.5438C25.103 31.4933 24.9607 31.4735 24.8193 31.486C24.678 31.4985 24.5413 31.543 24.4196 31.616C24.2979 31.689 24.1944 31.7887 24.1168 31.9075C24.0393 32.0264 23.9897 32.1613 23.9719 32.3021C23.954 32.4429 23.9684 32.5859 24.0139 32.7203C24.0593 32.8547 24.1347 32.9771 24.2344 33.0781L27.125 38L27.3594 38.3906V38.7031C27.1893 38.925 26.9769 39.1109 26.7344 39.25C26.3815 39.4113 25.9795 39.428 25.6145 39.2966C25.2494 39.1652 24.9503 38.8961 24.7812 38.5469L21.9687 33.8594C21.8356 33.6801 21.6428 33.5543 21.4251 33.5046C21.2074 33.4548 20.9791 33.4845 20.7812 33.5881C20.5834 33.6917 20.4291 33.8625 20.346 34.0698C20.263 34.2771 20.2566 34.5072 20.3281 34.7188L23.0625 39.25L22.9062 39.5625C22.8105 39.734 22.68 39.8835 22.5229 40.0014C22.3659 40.1194 22.1859 40.2031 21.9946 40.2473C21.8032 40.2915 21.6047 40.295 21.4119 40.2578C21.2191 40.2206 21.0362 40.1434 20.875 40.0312C20.6339 39.8827 20.4433 39.6649 20.3281 39.4062H20.25L15.4062 31.2031C15.3141 31.0589 15.187 30.9403 15.0368 30.8584C14.8865 30.7764 14.718 30.7338 14.5469 30.7344H10.7969V18.3125H20.25L16.5 21.9844C16.3389 22.1319 16.2089 22.31 16.1175 22.5085C16.0262 22.7069 15.9754 22.9215 15.9681 23.1398C15.9608 23.3581 15.9972 23.5757 16.0751 23.7797C16.1531 23.9838 16.2709 24.1702 16.4219 24.3281L16.7344 24.5625L17.2812 24.875C18.0628 25.4125 18.989 25.7002 19.9375 25.7002C20.886 25.7002 21.8122 25.4125 22.5938 24.875L27.8281 21.5156L35.25 33.9375C35.3401 34.1037 35.3937 34.2873 35.4072 34.4759C35.4207 34.6646 35.3937 34.8539 35.3281 35.0313Z" fill="white"/>
  <path d="M35.4844 30.9688L28.8437 19.9531C28.7919 19.8401 28.7162 19.7396 28.6218 19.6587C28.5274 19.5778 28.4165 19.5183 28.2969 19.4844C28.1632 19.4514 28.0239 19.4484 27.8888 19.4754C27.7538 19.5024 27.6264 19.5588 27.5156 19.6406L21.4219 23.5469C20.9139 23.8496 20.3335 24.0094 19.7422 24.0094C19.1508 24.0094 18.5705 23.8496 18.0625 23.5469L17.6719 23.3125L24.3906 16.8281C24.8681 16.3482 25.5109 16.0688 26.1875 16.0469H32.9062C33.2578 16.0504 33.6044 16.1303 33.9219 16.2813L39.7812 18.7031V30.9688H35.4844Z" fill="white"/>
  <g style="mix-blend-mode:darken">
    <path d="M2.59375 14.5625H10.4062V33.3125H2.59375V14.5625ZM40.0938 14.5625H47.9062V33.3125H40.0938V14.5625Z" fill="#70DBFF"/>
  </g>
  <path d="M35.25 33.9375L27.8281 21.5156L22.5938 24.875C21.8122 25.4125 20.886 25.7002 19.9375 25.7002C18.989 25.7002 18.0628 25.4125 17.2812 24.875L16.7344 24.5625L16.4219 24.3281C16.2709 24.1702 16.1531 23.9838 16.0751 23.7797C15.9972 23.5757 15.9608 23.3581 15.9681 23.1398C15.9754 22.9215 16.0262 22.7069 16.1175 22.5085C16.2089 22.31 16.3389 22.1319 16.5 21.9844L20.25 18.3125H10.7969V19.875H17.9063L20.5625 20.0313C19.9375 20.6563 19.2344 19.6406 16.6562 23.1563C17.4331 23.6755 18.242 24.1452 19.0781 24.5625V24.7188C20.7188 25.7344 21.7344 24.5625 22.2031 24.7188L26.1094 21.5938L33.7656 35.5C33.8438 35.5781 33.8438 35.5781 33.8438 35.6563L34.3125 35.9688H34.3906C35.1719 36.2031 35.1719 35.8125 35.4062 35.0313C35.4602 34.8484 35.4742 34.6561 35.4473 34.4674C35.4203 34.2786 35.353 34.0979 35.25 33.9375Z" fill="#DEE0E2"/>
  <path d="M47.75 14.0938H40.3281C40.0795 14.0937 39.841 14.1925 39.6652 14.3683C39.4894 14.5442 39.3906 14.7826 39.3906 15.0313V16.9063L34.3906 14.875C33.8734 14.6514 33.3132 14.5446 32.75 14.5625H26.3438C25.7835 14.5456 25.2255 14.6406 24.7024 14.8418C24.1792 15.043 23.7014 15.3464 23.2969 15.7344L22.2031 16.8281H11.1094V15.0313C11.1094 14.7826 11.0106 14.5442 10.8348 14.3683C10.659 14.1925 10.4205 14.0938 10.1719 14.0938H2.75C2.62689 14.0938 2.50498 14.118 2.39123 14.1651C2.27749 14.2122 2.17414 14.2813 2.08709 14.3683C2.00003 14.4554 1.93098 14.5587 1.88386 14.6725C1.83675 14.7862 1.8125 14.9081 1.8125 15.0313V33.2344C1.8125 33.483 1.91127 33.7215 2.08709 33.8973C2.2629 34.0731 2.50136 34.1719 2.75 34.1719H10.1719C10.4205 34.1719 10.659 34.0731 10.8348 33.8973C11.0106 33.7215 11.1094 33.483 11.1094 33.2344V32.5312H14.3125L18.6875 39.875C18.9873 40.3802 19.409 40.8022 19.914 41.1024C20.4189 41.4027 20.9911 41.5716 21.5781 41.5937C22.0809 41.5847 22.5749 41.4603 23.0219 41.23C23.4689 40.9997 23.857 40.6698 24.1562 40.2656L24.8594 40.5781L25.9531 40.7344C26.5034 40.7241 27.0422 40.5757 27.52 40.3026C27.9978 40.0296 28.3993 39.6407 28.6875 39.1719H28.8437L29.8594 39.3281C30.4243 39.3389 30.9821 39.2 31.476 38.9256C31.97 38.6512 32.3826 38.251 32.6719 37.7656H32.75V37.5313L33.6094 37.6875C34.0367 37.6876 34.4597 37.6023 34.8535 37.4364C35.2473 37.2706 35.6039 37.0276 35.9024 36.7219C36.2009 36.4161 36.4352 36.0537 36.5915 35.656C36.7478 35.2584 36.8229 34.8334 36.8125 34.4063C36.8222 33.9193 36.7151 33.437 36.5 33L36.2656 32.6094H39.3125V33.3125C39.3125 33.5611 39.4113 33.7996 39.5871 33.9754C39.7629 34.1512 40.0014 34.25 40.25 34.25H47.6719C47.8083 34.2619 47.9456 34.2438 48.0742 34.197C48.2029 34.1502 48.3197 34.0758 48.4165 33.979C48.5133 33.8822 48.5877 33.7654 48.6345 33.6367C48.6813 33.5081 48.6994 33.3708 48.6875 33.2344V15.0313C48.6875 14.9081 48.6633 14.7862 48.6161 14.6725C48.569 14.5587 48.5 14.4554 48.4129 14.3683C48.3259 14.2813 48.2225 14.2122 48.1088 14.1651C47.995 14.118 47.8731 14.0938 47.75 14.0938ZM9.39062 32.5312H3.375V15.6562H9.39062V32.5312ZM35.3281 35.0312C35.2749 35.2128 35.1855 35.3818 35.0654 35.5281C34.9453 35.6743 34.7969 35.7948 34.6292 35.8823C34.4614 35.9699 34.2777 36.0226 34.089 36.0375C33.9004 36.0523 33.7107 36.029 33.5312 35.9688H33.4531C33.1019 35.8186 32.8221 35.5387 32.6719 35.1875H32.5938L29.625 30.3438C29.4961 30.1418 29.2947 29.9969 29.0622 29.9387C28.8297 29.8806 28.5838 29.9137 28.375 30.0312C28.1801 30.1845 28.0431 30.3993 27.9863 30.6406C27.9295 30.8819 27.9564 31.1353 28.0625 31.3594L31.0313 36.125L31.5 36.8281L31.3438 37.1406C31.1952 37.3817 30.9774 37.5723 30.7188 37.6875C30.5594 37.7956 30.3744 37.8598 30.1824 37.8735C29.9903 37.8872 29.7981 37.85 29.625 37.7656C29.2835 37.641 29.0035 37.389 28.8437 37.0625H28.7656L25.7969 32.1406C25.7546 32.0052 25.6821 31.8811 25.5849 31.7777C25.4877 31.6743 25.3683 31.5943 25.2357 31.5438C25.103 31.4933 24.9607 31.4735 24.8193 31.486C24.678 31.4985 24.5413 31.543 24.4196 31.616C24.2979 31.689 24.1944 31.7887 24.1168 31.9075C24.0393 32.0264 23.9897 32.1613 23.9719 32.3021C23.954 32.4429 23.9684 32.5859 24.0139 32.7203C24.0593 32.8547 24.1347 32.9771 24.2344 33.0781L27.125 38L27.3594 38.3906V38.7031C27.1893 38.925 26.9769 39.1109 26.7344 39.25C26.3815 39.4113 25.9795 39.428 25.6145 39.2966C25.2494 39.1652 24.9503 38.8961 24.7812 38.5469L21.9688 33.8594C21.8356 33.6801 21.6428 33.5543 21.4251 33.5046C21.2074 33.4548 20.9791 33.4845 20.7812 33.5881C20.5834 33.6917 20.4291 33.8625 20.346 34.0698C20.263 34.2771 20.2566 34.5072 20.3281 34.7188L23.0625 39.25L22.9062 39.5625C22.8105 39.734 22.68 39.8835 22.5229 40.0014C22.3659 40.1194 22.1859 40.2031 21.9946 40.2473C21.8032 40.2915 21.6047 40.295 21.4119 40.2578C21.2191 40.2206 21.0362 40.1434 20.875 40.0312C20.6339 39.8827 20.4433 39.6649 20.3281 39.4063H20.25L15.4062 31.2031C15.3141 31.0589 15.187 30.9403 15.0368 30.8584C14.8865 30.7764 14.718 30.7338 14.5469 30.7344H10.7969V18.3125H20.25L16.5 21.9844C16.3389 22.1319 16.2089 22.31 16.1175 22.5085C16.0262 22.7069 15.9754 22.9215 15.9681 23.1398C15.9608 23.3581 15.9972 23.5757 16.0751 23.7797C16.1531 23.9838 16.2709 24.1702 16.4219 24.3281L16.7344 24.5625L17.2812 24.875C18.0628 25.4125 18.989 25.7002 19.9375 25.7002C20.886 25.7002 21.8122 25.4125 22.5938 24.875L27.8281 21.5156L35.25 33.9375C35.3401 34.1037 35.3937 34.2873 35.4072 34.4759C35.4207 34.6646 35.3937 34.8539 35.3281 35.0312ZM35.4844 30.9688L28.8437 19.9531C28.7919 19.8401 28.7162 19.7396 28.6218 19.6587C28.5274 19.5778 28.4165 19.5183 28.2969 19.4844C28.1632 19.4514 28.0239 19.4484 27.8888 19.4754C27.7538 19.5024 27.6264 19.5588 27.5156 19.6406L21.4219 23.5469C20.9139 23.8496 20.3335 24.0094 19.7422 24.0094C19.1508 24.0094 18.5705 23.8496 18.0625 23.5469L17.6719 23.3125L24.3906 16.8281C24.8681 16.3482 25.5109 16.0688 26.1875 16.0469H32.9062C33.2578 16.0504 33.6044 16.1303 33.9219 16.2813L39.7812 18.7031V30.9688H35.4844ZM47.125 32.5312H41.1094V15.6562H47.125V32.5312Z" fill="#013042"/>
  <path d="M50.25 49.5H0.25V51.5H50.25V49.5Z" fill="black" mask="url(#path-1-inside-1_56_4357)"/>
</svg>