<svg width="20" height="20" viewBox="0 0 20 20" fill="none" xmlns="http://www.w3.org/2000/svg">
<g id="credit-card" clip-path="url(#clip0_740_3092)">
<path id="Vector" d="M0 16.1111C0 17.0313 0.746528 17.7778 1.66667 17.7778H18.3333C19.2535 17.7778 20 17.0313 20 16.1111V10H0V16.1111ZM6.66667 13.75C6.66667 13.5208 6.85417 13.3333 7.08333 13.3333H11.8056C12.0347 13.3333 12.2222 13.5208 12.2222 13.75V15.1389C12.2222 15.3681 12.0347 15.5556 11.8056 15.5556H7.08333C6.85417 15.5556 6.66667 15.3681 6.66667 15.1389V13.75ZM2.22222 13.75C2.22222 13.5208 2.40972 13.3333 2.63889 13.3333H5.13889C5.36806 13.3333 5.55556 13.5208 5.55556 13.75V15.1389C5.55556 15.3681 5.36806 15.5556 5.13889 15.5556H2.63889C2.40972 15.5556 2.22222 15.3681 2.22222 15.1389V13.75ZM20 3.8889V5.55556H0V3.8889C0 2.96876 0.746528 2.22223 1.66667 2.22223H18.3333C19.2535 2.22223 20 2.96876 20 3.8889Z" fill="#828282"/>
</g>
<defs>
<clipPath id="clip0_740_3092">
<rect width="20" height="20" fill="white"/>
</clipPath>
</defs>
</svg>
