<svg xmlns="http://www.w3.org/2000/svg" width="51" height="51" viewBox="0 0 51 51" fill="none">
  <path d="M8.84375 12.2188H41.6562V34.875H8.84375V12.2188Z" fill="white"/>
  <path d="M8.84375 12.2188V14.5625H39.3125V34.875H41.6562V12.2188H8.84375Z" fill="#DEE0E2"/>
  <path d="M16.5781 17.6094H19.2344L21.6562 25.5781H29.7812M21.1875 23.1563H30.6406M20.5625 20.7344H31.1875M28.7656 37.5313V42.9219M21.7344 42.9219V37.5313M15.1719 43.2344H35.3281M7.82813 9.32812H42.6719C43.1899 9.32812 43.6867 9.5339 44.0529 9.90018C44.4192 10.2665 44.625 10.7632 44.625 11.2812V35.2656C44.6254 35.7911 44.4221 36.2962 44.0579 36.675C43.6937 37.0538 43.1969 37.2767 42.6719 37.2969H7.82813C7.30306 37.2767 6.80625 37.0538 6.44206 36.675C6.07786 36.2962 5.87461 35.7911 5.875 35.2656V11.2812C5.875 10.7632 6.08078 10.2665 6.44706 9.90018C6.81334 9.5339 7.31012 9.32812 7.82813 9.32812ZM8.6875 12.0625H41.8125V34.4844H8.6875V12.0625ZM22.9062 28.3906C23.0119 28.3781 23.119 28.3896 23.2195 28.4244C23.32 28.4593 23.4113 28.5164 23.4865 28.5916C23.5617 28.6669 23.6189 28.7582 23.6537 28.8587C23.6885 28.9592 23.7001 29.0663 23.6875 29.1719C23.6875 29.3791 23.6052 29.5778 23.4587 29.7243C23.3122 29.8708 23.1134 29.9531 22.9062 29.9531C22.705 29.9355 22.5163 29.8476 22.3734 29.7047C22.2306 29.5618 22.1426 29.3732 22.125 29.1719C22.125 28.9647 22.2073 28.766 22.3538 28.6194C22.5003 28.4729 22.699 28.3906 22.9062 28.3906ZM27.9063 28.3906C28.0119 28.3781 28.119 28.3896 28.2195 28.4244C28.32 28.4593 28.4113 28.5164 28.4865 28.5916C28.5617 28.6669 28.6189 28.7582 28.6537 28.8587C28.6885 28.9592 28.7001 29.0663 28.6875 29.1719C28.6875 29.3791 28.6052 29.5778 28.4587 29.7243C28.3122 29.8708 28.1135 29.9531 27.9063 29.9531C27.6991 29.9531 27.5003 29.8708 27.3538 29.7243C27.2073 29.5778 27.125 29.3791 27.125 29.1719C27.1124 29.0663 27.124 28.9592 27.1588 28.8587C27.1936 28.7582 27.2508 28.6669 27.326 28.5916C27.4012 28.5164 27.4925 28.4593 27.593 28.4244C27.6935 28.3896 27.8006 28.3781 27.9063 28.3906Z" stroke="#4D535B" stroke-width="2" stroke-miterlimit="10"/>
  <g style="mix-blend-mode:darken">
    <path d="M21.3438 37.2188H29.1562V42.6875H21.3438V37.2188Z" fill="#70DBFF"/>
  </g>
  <path d="M50.25 49.5H0.25V51.5H50.25V49.5Z" fill="#013042" mask="url(#path-1-inside-1_56_4214)"/>
</svg>