<svg width="50" height="60" viewBox="0 0 50 60" fill="none" xmlns="http://www.w3.org/2000/svg">
<path d="M29.1667 15.9375V0H3.125C1.39323 0 0 1.25391 0 2.8125V57.1875C0 58.7461 1.39323 60 3.125 60H46.875C48.6068 60 50 58.7461 50 57.1875V18.75H32.2917C30.5729 18.75 29.1667 17.4844 29.1667 15.9375ZM37.5 43.5938C37.5 44.3672 36.7969 45 35.9375 45H14.0625C13.2031 45 12.5 44.3672 12.5 43.5938V42.6562C12.5 41.8828 13.2031 41.25 14.0625 41.25H35.9375C36.7969 41.25 37.5 41.8828 37.5 42.6562V43.5938ZM37.5 36.0938C37.5 36.8672 36.7969 37.5 35.9375 37.5H14.0625C13.2031 37.5 12.5 36.8672 12.5 36.0938V35.1562C12.5 34.3828 13.2031 33.75 14.0625 33.75H35.9375C36.7969 33.75 37.5 34.3828 37.5 35.1562V36.0938ZM37.5 27.6562V28.5938C37.5 29.3672 36.7969 30 35.9375 30H14.0625C13.2031 30 12.5 29.3672 12.5 28.5938V27.6562C12.5 26.8828 13.2031 26.25 14.0625 26.25H35.9375C36.7969 26.25 37.5 26.8828 37.5 27.6562ZM50 14.2852V15H33.3333V0H34.1276C34.9609 0 35.7552 0.292969 36.3411 0.820312L49.0885 12.3047C49.6745 12.832 50 13.5469 50 14.2852Z" fill="black"/>
</svg>
