<svg xmlns="http://www.w3.org/2000/svg" width="28" height="29" viewBox="0 0 28 29" fill="none">
  <g clip-path="url(#clip0_179_6609)">
    <path d="M27.9852 14.7713C27.9852 13.5831 27.8899 12.7161 27.6838 11.817H14.2789V17.1796H22.1473C21.9887 18.5123 21.132 20.5192 19.2283 21.8678L19.2017 22.0474L23.44 25.3705L23.7337 25.4002C26.4305 22.8794 27.9852 19.1705 27.9852 14.7713Z" fill="#4285F4"/>
    <path d="M14.2789 28.9004C18.1337 28.9004 21.3699 27.6158 23.7337 25.4002L19.2284 21.8679C18.0227 22.7188 16.4046 23.3129 14.2789 23.3129C10.5033 23.3129 7.29887 20.7922 6.15656 17.3081L5.98913 17.3225L1.58199 20.7745L1.52435 20.9366C3.87217 25.657 8.69479 28.9004 14.2789 28.9004Z" fill="#34A853"/>
    <path d="M6.15656 17.3081C5.85516 16.409 5.68072 15.4456 5.68072 14.4502C5.68072 13.4547 5.85516 12.4914 6.14071 11.5923L6.13272 11.4008L1.67036 7.89331L1.52435 7.9636C0.556705 9.92243 0.00146484 12.1221 0.00146484 14.4502C0.00146484 16.7783 0.556705 18.9778 1.52435 20.9367L6.15656 17.3081Z" fill="#FBBC05"/>
    <path d="M14.2789 5.58737C16.9598 5.58737 18.7683 6.75944 19.7995 7.7389L23.8289 3.75705C21.3542 1.42897 18.1337 0 14.2789 0C8.69479 0 3.87217 3.24324 1.52435 7.9636L6.14071 11.5923C7.29887 8.10816 10.5033 5.58737 14.2789 5.58737Z" fill="#EB4335"/>
  </g>
  <defs>
    <clipPath id="clip0_179_6609">
      <rect width="28" height="29" fill="white"/>
    </clipPath>
  </defs>
</svg>