<svg
              xmlns="http://www.w3.org/2000/svg"
              width="51"
              height="51"
              viewBox="0 0 51 51"
              fill="none"
            >
              <path
                d="M14.8125 23.9375L16.375 40.3438H15.5938V44.25H37.4688V40.3438H35.9062L37.4688 23.9375H14.8125Z"
                fill="white"
              />
              <path
                d="M37.4688 23.9375H14.8125L14.9688 26.2812H35.125L33.5625 41.125H35.125V44.25H37.4688V40.3438H35.9062L37.4688 23.9375Z"
                fill="#DEE0E2"
              />
              <path
                d="M31.6094 23.7031L39.5781 8.15625L43.7969 10.3438L36.8438 23.7031"
                stroke="#4D535B"
                stroke-width="2"
                stroke-miterlimit="10"
              />
              <path
                d="M40.5937 23.3125L44.7344 15.1875L37.7812 11.5937M12.3906 17.6094L15.9062 23.7031M22.4687 23.7031L17.2344 14.4844M17.1562 15.1875L12.625 18.0781M19.1875 23.7031L15.3594 16.5156M29.2656 23.7031L29.3437 13.9375L26.6875 8.23437L24.1875 14.1719V23.7031M28.9531 14.4062L24.1875 14.6406M26.7656 23.7031L26.6094 15.2656M36.375 40.1875L37.7031 23.9375H14.9687L16.2187 40.1875M15.125 44.4063H37.5469V40.5H15.125V44.4063ZM9.89062 6.98438C9.12113 9.23022 9.06654 11.6594 9.73437 13.9375C10.9062 17.1406 13.7187 17.8437 15.9062 15.2656C16.1609 15.0335 16.3466 14.7357 16.4431 14.405C16.5396 14.0742 16.543 13.7232 16.4531 13.3906C15.5937 10.8906 13.0937 11.6719 9.89062 6.98438Z"
                stroke="#4D535B"
                stroke-width="2"
                stroke-miterlimit="10"
              />
              <g style="mix-blend-mode:darken">
                <path
                  d="M12.4687 18.4688L16.375 23.9375H22.625L17.9375 15.3438L12.4687 18.4688ZM9.89062 6.98438C9.12113 9.23022 9.06654 11.6594 9.73437 13.9375C10.9062 17.1406 13.7187 17.8437 15.9062 15.2656C16.1609 15.0335 16.3466 14.7357 16.4431 14.405C16.5396 14.0742 16.543 13.7232 16.4531 13.3906C15.5937 10.8906 13.0937 11.6719 9.89062 6.98438ZM31.2187 23.9375L39.8125 8.3125L43.7187 10.6562L36.6875 23.9375H31.2187ZM24.1875 23.9375H29.6562L28.875 14.5625L26.5312 8.3125L24.1875 14.5625V23.9375Z"
                  fill="#70DBFF"
                />
              </g>
              <path
                d="M50.75 49.5H0.75V51.5H50.75V49.5Z"
                fill="#013042"
                mask="url(#path-1-inside-1_56_4366)"
              />
            </svg>