<?xml version="1.0" encoding="utf-8"?>
<!-- Generator: Adobe Illustrator 24.0.0, SVG Export Plug-In . SVG Version: 6.00 Build 0)  -->
<svg version="1.0" id="Layer_1" xmlns="http://www.w3.org/2000/svg" xmlns:xlink="http://www.w3.org/1999/xlink" x="0px" y="0px"
	 viewBox="0 0 768 768" style="enable-background:new 0 0 768 768;" xml:space="preserve">
<style type="text/css">
	.st0{fill:#013042;}
	.st1{fill:#FFFFFF;stroke:#013042;stroke-width:10;}
</style>
<rect x="0.56" class="st0" width="768" height="768"/>
<path class="st1" d="M499.76,241.92h9.6v-9.6v-26.88v-9.6h-9.6h-153.6c-91.43,0-163.2,85.66-163.2,188.16s71.77,188.16,163.2,188.16
	h153.6h9.6v-9.6v-26.88v-9.6h-9.6h-153.6c-56.95,0-106.35-50.26-115.56-119.04h269.16h9.6v-9.6v-26.88v-9.6h-9.6H230.6
	c9.21-68.78,58.62-119.04,115.56-119.04H499.76z"/>
<path class="st1" d="M326.96,241.92h9.6v-9.6v-26.88v-9.6h-9.6h-192c-58.31,0-105.6,47.29-105.6,105.6s47.29,105.6,105.6,105.6h96
	c32.87,0,59.52,26.65,59.52,59.52s-26.65,59.52-59.52,59.52h-192h-9.6v9.6v26.88v9.6h9.6h192c58.31,0,105.6-47.29,105.6-105.6
	s-47.29-105.6-105.6-105.6h-96c-32.87,0-59.52-26.65-59.52-59.52s26.65-59.52,59.52-59.52H326.96z"/>
<path class="st1" d="M499.76,195.84h-9.6v9.6v26.88v330.24v9.6h9.6h26.88h9.6v-9.6V241.92h97.92c32.87,0,59.52,26.65,59.52,59.52
	s-26.65,59.52-59.52,59.52h-76.8h-9.6v9.6v26.88v9.6h9.6h76.8c58.31,0,105.6-47.29,105.6-105.6s-47.29-105.6-105.6-105.6H526.64
	H499.76z"/>
</svg>
