<svg xmlns="http://www.w3.org/2000/svg" width="51" height="51" viewBox="0 0 51 51" fill="none">
  <path d="M22.9062 7.6875C24.6746 7.70806 26.3635 8.425 27.6067 9.68279C28.8499 10.9406 29.547 12.6378 29.5469 14.4062V25.2656C29.5469 26.1377 29.3751 27.0012 29.0414 27.8069C28.7077 28.6126 28.2185 29.3446 27.6019 29.9613C26.9852 30.5779 26.2532 31.067 25.4475 31.4008C24.6418 31.7345 23.7783 31.9062 22.9062 31.9062C21.145 31.9062 19.456 31.2066 18.2106 29.9613C16.9653 28.7159 16.2656 27.0268 16.2656 25.2656V14.4062C16.2655 12.6378 16.9626 10.9406 18.2058 9.68279C19.449 8.425 21.1379 7.70806 22.9062 7.6875Z" fill="white"/>
  <path d="M22.5156 8.46875C21.4581 8.47442 20.4171 8.7326 19.4795 9.2218C18.5419 9.711 17.7346 10.4171 17.125 11.2813C18.2385 10.4737 19.5776 10.0364 20.9531 10.0312C24.625 10.0312 26.8125 13.0781 26.8125 16.75V27.6094C26.8296 28.9884 26.3901 30.3343 25.5625 31.4375C27.2813 30.2656 29.1562 28.3125 29.1562 26.0469V15.1875C29.1564 13.419 28.4592 11.7218 27.2161 10.464C25.9729 9.20625 24.284 8.48931 22.5156 8.46875Z" fill="#DEE0E2"/>
  <path d="M33.2969 23.3906V25.8906C33.2764 28.6401 32.1751 31.2711 30.2309 33.2153C28.2867 35.1595 25.6557 36.2608 22.9063 36.2812M22.9063 36.2812C20.1568 36.2608 17.5258 35.1595 15.5816 33.2153C13.6374 31.2711 12.5361 28.6401 12.5156 25.8906V23.3906M22.9063 36.2812V44.4844M14.3906 44.875H31.4219" stroke="#013042" stroke-width="2" stroke-miterlimit="10"/>
  <path d="M16.5781 14.1719H20.3281M16.5781 17.9219H20.3281M16.5781 21.75H20.3281M16.5781 25.5H20.3281M25.4844 14.1719H29.2344M25.4844 17.9219H29.2344M25.4844 21.75H29.2344M25.4844 25.5H29.2344M22.9062 7.6875C24.6746 7.70806 26.3635 8.425 27.6067 9.68279C28.8499 10.9406 29.547 12.6378 29.5469 14.4062V25.2656C29.5469 26.1377 29.3751 27.0012 29.0414 27.8069C28.7077 28.6126 28.2185 29.3446 27.6019 29.9613C26.9852 30.5779 26.2532 31.067 25.4475 31.4008C24.6418 31.7345 23.7783 31.9062 22.9062 31.9062C21.145 31.9062 19.456 31.2066 18.2106 29.9613C16.9653 28.7159 16.2656 27.0268 16.2656 25.2656V14.4062C16.2655 12.6378 16.9626 10.9406 18.2058 9.68279C19.449 8.425 21.1379 7.70806 22.9062 7.6875ZM37.5937 14.4844C37.862 14.3848 38.1502 14.3507 38.4343 14.3849C38.7183 14.4191 38.9902 14.5207 39.2271 14.6812C39.464 14.8417 39.6591 15.0564 39.7963 15.3075C39.9334 15.5587 40.0086 15.8389 40.0156 16.125C39.9711 16.7761 39.7075 17.3931 39.2678 17.8754C38.828 18.3576 38.238 18.6769 37.5937 18.7812C36.2656 19.0156 35.1719 18.3125 35.1719 17.0625C35.2331 16.4252 35.5041 15.8263 35.9424 15.3597C36.3807 14.8931 36.9616 14.5853 37.5937 14.4844Z" stroke="#013042" stroke-width="2" stroke-miterlimit="10"/>
  <path d="M39.9375 8.70312L45.6406 10.7344V7.21875L39.9375 5.1875V16.6719" stroke="#013042" stroke-width="2" stroke-miterlimit="10"/>
  <g style="mix-blend-mode:darken">
    <path d="M37.5937 14.4844C37.862 14.3848 38.1502 14.3506 38.4343 14.3849C38.7183 14.4191 38.9902 14.5207 39.2271 14.6812C39.464 14.8417 39.6591 15.0564 39.7963 15.3075C39.9334 15.5587 40.0086 15.8389 40.0156 16.125C39.9711 16.7761 39.7075 17.3931 39.2678 17.8754C38.828 18.3576 38.238 18.6769 37.5937 18.7812C36.2656 19.0156 35.1719 18.3125 35.1719 17.0625C35.2331 16.4252 35.5041 15.8263 35.9424 15.3597C36.3807 14.8931 36.9616 14.5853 37.5937 14.4844ZM39.8594 8.70312L45.5625 10.7344V7.21875L39.8594 5.1875" fill="#70DBFF"/>
  </g>
  <path d="M50.25 49.5H0.25V51.5H50.25V49.5Z" fill="black" mask="url(#path-1-inside-1_56_4339)"/>
</svg>