<svg xmlns="http://www.w3.org/2000/svg" width="32" height="32" viewBox="0 0 32 32" fill="none">
  <path d="M30.6688 19.5586C30.1666 19.1006 29.7683 18.5559 29.4972 17.9559C29.2261 17.356 29.0874 16.7127 29.0893 16.0633V11.9975C29.0893 8.81556 27.7102 5.76395 25.2553 3.51398C22.8005 1.26402 19.471 0 15.9993 0C12.5276 0 9.19808 1.26402 6.74323 3.51398C4.28837 5.76395 2.90925 8.81556 2.90925 11.9975V16.0633C2.9111 16.7127 2.77245 17.356 2.50133 17.9559C2.23021 18.5559 1.83199 19.1006 1.32972 19.5586C0.694808 20.1404 0.262423 20.8818 0.0872431 21.6889C-0.0879368 22.496 0.00195761 23.3326 0.345558 24.0928C0.689157 24.8531 1.27103 25.5029 2.01758 25.96C2.76413 26.4172 3.64184 26.6612 4.53968 26.6611H8.87248C9.2063 28.1678 10.0982 29.5225 11.397 30.4955C12.6959 31.4685 14.3218 32 15.9993 32C17.6768 32 19.3027 31.4685 20.6015 30.4955C21.9004 29.5225 22.7922 28.1678 23.1261 26.6611H27.4603C28.3582 26.6612 29.2359 26.4172 29.9824 25.96C30.729 25.5029 31.3108 24.8531 31.6544 24.0928C31.998 23.3326 32.0879 22.496 31.9128 21.6889C31.7376 20.8818 31.3052 20.1404 30.6703 19.5586H30.6688ZM15.9993 29.3272C15.1 29.3238 14.2239 29.0658 13.4908 28.5886C12.7576 28.1113 12.2033 27.4381 11.9035 26.6611H20.095C19.7953 27.4381 19.2409 28.1113 18.5078 28.5886C17.7746 29.0658 16.8985 29.3238 15.9993 29.3272ZM27.4589 23.995H4.53968C4.21707 23.9952 3.90165 23.9076 3.63335 23.7434C3.36505 23.5792 3.15592 23.3458 3.03244 23.0726C2.90896 22.7995 2.87667 22.4988 2.93966 22.2089C3.00265 21.9189 3.15809 21.6525 3.3863 21.4435C4.15956 20.7386 4.77263 19.9001 5.19005 18.9766C5.60746 18.0531 5.82095 17.0629 5.81814 16.0633V11.9975C5.81814 9.52266 6.89079 7.14918 8.80013 5.39921C10.7095 3.64923 13.2991 2.66611 15.9993 2.66611C18.6995 2.66611 21.2891 3.64923 23.1984 5.39921C25.1078 7.14918 26.1804 9.52266 26.1804 11.9975V16.0633C26.1776 17.0629 26.3911 18.0531 26.8085 18.9766C27.2259 19.9001 27.839 20.7386 28.6122 21.4435C28.8405 21.6525 28.9959 21.9189 29.0589 22.2089C29.1219 22.4988 29.0896 22.7995 28.9661 23.0726C28.8426 23.3458 28.6335 23.5792 28.3652 23.7434C28.0969 23.9076 27.7815 23.9952 27.4589 23.995Z" fill="#514949"/>
</svg>