<svg width="20" height="20" viewBox="0 0 20 20" fill="none" xmlns="http://www.w3.org/2000/svg">
<g id="paperclip" clip-path="url(#clip0_740_3131)">
<path id="Vector" d="M2.93929 18.2087C0.656866 15.8537 0.699405 12.0559 2.99343 9.70943L11.1872 1.32814C12.9183 -0.442637 15.7321 -0.442793 17.4634 1.32814C19.1778 3.08182 19.1799 5.91131 17.4634 7.66705L10.3209 14.966C9.15464 16.1588 7.24925 16.1422 6.1028 14.927C4.99831 13.7563 5.03374 11.9007 6.15952 10.7491L11.7745 5.01338C12.016 4.76674 12.4117 4.76252 12.6583 5.00396L13.5513 5.87814C13.798 6.11963 13.8022 6.51533 13.5607 6.76197L7.94636 12.4972C7.7537 12.6942 7.74183 13.0217 7.92105 13.2117C8.09183 13.3927 8.3603 13.3957 8.53386 13.2181L15.6764 5.91928C16.4425 5.13561 16.4425 3.85971 15.676 3.07561C14.9264 2.30893 13.7245 2.30854 12.9746 3.07561L4.78085 11.4569C3.42292 12.8459 3.40198 15.0944 4.73433 16.4691C6.06284 17.8399 8.2103 17.8416 9.54128 16.4803L16.2624 9.60529C16.5037 9.35846 16.8994 9.354 17.1462 9.59529L18.0398 10.4689C18.2867 10.7102 18.2912 11.1059 18.0498 11.3527L11.3287 18.2276C9.00155 20.608 5.23722 20.5798 2.93929 18.2087Z" fill="#02ADFD"/>
</g>
<defs>
<clipPath id="clip0_740_3131">
<rect width="20" height="20" fill="white"/>
</clipPath>
</defs>
</svg>
