<svg width="20" height="20" viewBox="0 0 20 20" fill="none" xmlns="http://www.w3.org/2000/svg">
<g id="phone-alt" clip-path="url(#clip0_740_3106)">
<path id="Vector" d="M19.4293 14.1329L15.0543 12.2579C14.8674 12.1782 14.6597 12.1615 14.4624 12.2101C14.2652 12.2587 14.089 12.37 13.9605 12.5274L12.023 14.8946C8.98232 13.4609 6.53524 11.0138 5.10156 7.97312L7.46875 6.03562C7.62644 5.90737 7.73804 5.73123 7.78668 5.53388C7.83531 5.33653 7.81832 5.1287 7.73828 4.94187L5.86328 0.56687C5.77543 0.365467 5.62007 0.201028 5.42397 0.101908C5.22787 0.00278863 5.00332 -0.0247995 4.78906 0.0239012L0.726562 0.961401C0.519988 1.0091 0.335682 1.12542 0.203725 1.29136C0.0717677 1.4573 -4.75863e-05 1.66306 2.36571e-08 1.87507C2.36571e-08 11.8946 8.12109 20.0001 18.125 20.0001C18.3371 20.0002 18.5429 19.9284 18.709 19.7965C18.875 19.6645 18.9913 19.4802 19.0391 19.2735L19.9766 15.211C20.025 14.9957 19.9968 14.7703 19.8969 14.5735C19.797 14.3767 19.6317 14.2209 19.4293 14.1329Z" fill="#02ADFD"/>
</g>
<defs>
<clipPath id="clip0_740_3106">
<rect width="20" height="20" fill="white"/>
</clipPath>
</defs>
</svg>
