<svg xmlns="http://www.w3.org/2000/svg" width="51" height="51" viewBox="0 0 51 51" fill="none">
  <path d="M46.6117 15.1273H35.6742L30.2055 8.09607H16.9242L11.4555 15.1273H5.98672C4.65859 15.1273 3.64297 16.1429 3.64297 17.4711V38.5648C3.64297 39.8929 4.65859 40.9086 5.98672 40.9086H46.6117C47.9398 40.9086 48.9555 39.8929 48.9555 38.5648V17.4711C48.9555 16.1429 47.9398 15.1273 46.6117 15.1273Z" fill="white" stroke="#013042" stroke-width="2" stroke-miterlimit="10"/>
  <path d="M40.3617 12.7836V11.2211H45.8305V12.7836" stroke="#013042" stroke-width="2" stroke-miterlimit="10"/>
  <path d="M23.9555 37.0023C29.9961 37.0023 34.893 32.1054 34.893 26.0648C34.893 20.0242 29.9961 15.1273 23.9555 15.1273C17.9148 15.1273 13.018 20.0242 13.018 26.0648C13.018 32.1054 17.9148 37.0023 23.9555 37.0023Z" fill="#70DBFF" stroke="#013042" stroke-width="2" stroke-miterlimit="10"/>
  <path d="M23.9555 33.8773C28.2703 33.8773 31.768 30.3797 31.768 26.0648C31.768 21.75 28.2703 18.2523 23.9555 18.2523C19.6406 18.2523 16.143 21.75 16.143 26.0648C16.143 30.3797 19.6406 33.8773 23.9555 33.8773Z" fill="white" stroke="#013042" stroke-width="2" stroke-miterlimit="10"/>
  <path d="M19.5805 24.5023C20.2055 22.7054 21.9242 21.3773 24.0336 21.3773M19.893 28.4086C19.5023 27.7054 19.268 26.9242 19.268 26.0648M6.76797 19.0336H11.4555" stroke="#013042" stroke-width="2" stroke-miterlimit="10"/>
  <path d="M46.6117 40.9086H39.5805V15.1273H46.6117C47.9398 15.1273 48.9555 16.1429 48.9555 17.4711V38.5648C48.9555 39.8148 47.9398 40.9086 46.6117 40.9086Z" fill="#70DBFF" stroke="#013042" stroke-width="2" stroke-miterlimit="10"/>
  <path d="M34.1117 35.4398H35.6742" stroke="#013042" stroke-width="2" stroke-miterlimit="10"/>
  <path d="M50.75 49.5H0.75V51.5H50.75V49.5Z" fill="black" mask="url(#path-1-inside-1_56_4349)"/>
</svg>