<svg width="15" height="15" viewBox="0 0 15 15" fill="none" xmlns="http://www.w3.org/2000/svg">
<g id="plus" clip-path="url(#clip0_187_6407)">
<path id="Vector" d="M13.125 6.09375H8.90625V1.875C8.90625 1.35732 8.48643 0.9375 7.96875 0.9375H7.03125C6.51357 0.9375 6.09375 1.35732 6.09375 1.875V6.09375H1.875C1.35732 6.09375 0.9375 6.51357 0.9375 7.03125V7.96875C0.9375 8.48643 1.35732 8.90625 1.875 8.90625H6.09375V13.125C6.09375 13.6427 6.51357 14.0625 7.03125 14.0625H7.96875C8.48643 14.0625 8.90625 13.6427 8.90625 13.125V8.90625H13.125C13.6427 8.90625 14.0625 8.48643 14.0625 7.96875V7.03125C14.0625 6.51357 13.6427 6.09375 13.125 6.09375Z" fill="#02ADFD"/>
</g>
<defs>
<clipPath id="clip0_187_6407">
<rect width="15" height="15" fill="white"/>
</clipPath>
</defs>
</svg>
