<svg xmlns="http://www.w3.org/2000/svg" width="51" height="51" viewBox="0 0 51 51" fill="none">
  <path d="M7 16.9062H44.5V41.9062H7V16.9062Z" fill="white"/>
  <path d="M7 16.9062V19.25H41.375V41.9062H44.5V16.9062H7Z" fill="#DEE0E2"/>
  <path d="M20.3594 24.6406L14.4219 29.4844L20.3594 34.25M31.1406 24.6406L37.0781 29.4844L31.1406 34.25M27.625 22.2969L24.5781 36.5938" stroke="#013042" stroke-width="2" stroke-miterlimit="10"/>
  <path d="M44.1094 16.6719H7.39062M44.1094 9.32812H7.39062V41.6719H44.1094V9.32812Z" stroke="#013042" stroke-width="2" stroke-miterlimit="10"/>
  <path d="M39.5 12.5313C39.3944 12.5187 39.2873 12.5303 39.1868 12.5651C39.0863 12.5999 38.995 12.6571 38.9198 12.7323C38.8446 12.8075 38.7874 12.8988 38.7526 12.9993C38.7178 13.0998 38.7062 13.2069 38.7188 13.3125C38.7188 13.5197 38.8011 13.7185 38.9476 13.865C39.0941 14.0115 39.2928 14.0938 39.5 14.0938C39.7013 14.0762 39.8899 13.9882 40.0328 13.8454C40.1757 13.7025 40.2637 13.5138 40.2813 13.3125C40.2813 13.1053 40.1989 12.9066 40.0524 12.7601C39.9059 12.6136 39.7072 12.5313 39.5 12.5313ZM34.2656 12.5313C34.16 12.5187 34.0529 12.5303 33.9524 12.5651C33.8519 12.5999 33.7606 12.6571 33.6854 12.7323C33.6102 12.8075 33.553 12.8988 33.5182 12.9993C33.4834 13.0998 33.4718 13.2069 33.4844 13.3125C33.4844 13.5197 33.5667 13.7185 33.7132 13.865C33.8597 14.0115 34.0584 14.0938 34.2656 14.0938C34.4669 14.0762 34.6556 13.9882 34.7984 13.8454C34.9413 13.7025 35.0293 13.5138 35.0469 13.3125C35.0469 13.1053 34.9646 12.9066 34.8181 12.7601C34.6715 12.6136 34.4728 12.5313 34.2656 12.5313Z" stroke="#013042" stroke-width="2" stroke-miterlimit="10"/>
  <g style="mix-blend-mode:darken">
    <path d="M7 9.09375H44.5V16.9062H7V9.09375Z" fill="#70DBFF"/>
  </g>
  <path d="M50.75 49.5H0.75V51.5H50.75V49.5Z" fill="black" mask="url(#path-1-inside-1_56_4329)"/>
</svg>