<svg xmlns="http://www.w3.org/2000/svg" width="32" height="32" viewBox="0 0 32 32" fill="none">
  <path d="M16 0C11.758 0.00477013 7.69111 1.69201 4.69156 4.69156C1.69201 7.69111 0.00477013 11.758 0 16C0.00721205 20.2412 1.69524 24.3067 4.69426 27.3057C7.69328 30.3048 11.7588 31.9928 16 32C20.2435 32 24.3131 30.3143 27.3137 27.3137C30.3143 24.3131 32 20.2435 32 16C32 11.7565 30.3143 7.68687 27.3137 4.68629C24.3131 1.68571 20.2435 0 16 0ZM25.732 25.2324C24.8333 23.4201 23.446 21.8949 21.7267 20.829C20.0074 19.7631 18.0244 19.1989 16.0015 19.2C13.9786 19.2011 11.9962 19.7675 10.278 20.8352C8.55988 21.903 7.17429 23.4296 6.27758 25.243C3.88491 22.7618 2.55165 19.4469 2.56 16C2.56 12.4355 3.976 9.01697 6.49648 6.49648C9.01697 3.976 12.4355 2.56 16 2.56C19.5645 2.56 22.983 3.976 25.5035 6.49648C28.024 9.01697 29.44 12.4355 29.44 16C29.448 19.4419 28.1184 22.7522 25.732 25.2324ZM16 6.4C14.8608 6.4 13.7471 6.73782 12.7999 7.37073C11.8527 8.00365 11.1144 8.90324 10.6785 9.95574C10.2425 11.0082 10.1284 12.1664 10.3507 13.2837C10.5729 14.4011 11.1215 15.4274 11.9271 16.2329C12.7326 17.0385 13.7589 17.5871 14.8763 17.8093C15.9936 18.0316 17.1518 17.9175 18.2043 17.4815C19.2568 17.0456 20.1563 16.3073 20.7893 15.3601C21.4222 14.4129 21.76 13.2992 21.76 12.16C21.76 11.4036 21.611 10.6546 21.3215 9.95574C21.0321 9.25691 20.6078 8.62193 20.0729 8.08707C19.5381 7.5522 18.9031 7.12792 18.2043 6.83845C17.5054 6.54899 16.7564 6.4 16 6.4Z" fill="#514949"/>
</svg>