<svg xmlns="http://www.w3.org/2000/svg" width="51" height="51" viewBox="0 0 51 51" fill="none">
  <path d="M11.9688 13.7812H38.5312V37.2188H11.9688V13.7812Z" fill="white"/>
  <path d="M11.9688 13.7812V16.125H36.9688V37.2188H38.5312V13.7812H11.9688Z" fill="#DEE0E2"/>
  <path d="M6.5 9.01562V41.9844M11.5781 9.01562V41.9844M6.65625 11.0469H11.4219M6.65625 15.8906H11.4219M6.65625 20.6562H11.4219M6.65625 25.5H11.4219M6.65625 30.3437H11.4219M6.65625 35.1094H11.4219M6.65625 39.9531H11.4219M38.9219 9.01562V41.9844M44 9.01562V41.9844M39.0781 11.0469H43.8437M39.0781 15.8906H43.8437M39.0781 20.6562H43.8437M39.0781 25.5H43.8437M39.0781 30.3437H43.8437M39.0781 35.1094H43.8437M39.0781 39.9531H43.8437M12.4375 36.9844H38.9219M12.4375 14.0156H38.9219M21.5781 19.1719C22.8337 18.4371 24.2792 18.0917 25.7314 18.1796C27.1835 18.2676 28.5768 18.7848 29.7345 19.6658C30.8923 20.5467 31.7622 21.7517 32.2341 23.1278C32.706 24.5039 32.7586 25.9892 32.3851 27.3953C32.0116 28.8013 31.229 30.0647 30.1364 31.0253C29.0438 31.9859 27.6905 32.6003 26.2482 32.7906C24.806 32.9809 23.3396 32.7386 22.0353 32.0943C20.7309 31.4501 19.6473 30.4329 18.9219 29.1719C18.4329 28.3426 18.1136 27.4244 17.9826 26.4707C17.8515 25.517 17.9113 24.5467 18.1584 23.6163C18.4056 22.6859 18.8351 21.8138 19.4222 21.0509C20.0093 20.2879 20.7421 19.6492 21.5781 19.1719Z" stroke="#013042" stroke-width="2" stroke-miterlimit="10"/>
  <path d="M23.1406 22.2969V29.1719L26.1875 27.4531L29.1563 25.7344L26.1875 24.0156L23.1406 22.2969Z" fill="#013042"/>
  <g style="mix-blend-mode:darken">
    <path d="M6.5 11.4375H11.1875V39.5625H6.5V11.4375ZM39.3125 11.4375H44V39.5625H39.3125V11.4375Z" fill="#70DBFF"/>
  </g>
  <path d="M50.25 49.5H0.25V51.5H50.25V49.5Z" fill="black" mask="url(#path-1-inside-1_56_4238)"/>
</svg>