<svg xmlns="http://www.w3.org/2000/svg" width="51" height="51" viewBox="0 0 51 51" fill="none">
  <path d="M31.7656 8.9375H11.0625C10.731 8.9375 10.413 9.0692 10.1786 9.30362C9.9442 9.53804 9.8125 9.85598 9.8125 10.1875V40.9687C9.8125 41.3003 9.9442 41.6182 10.1786 41.8526C10.413 42.0871 10.731 42.2188 11.0625 42.2188H31.7656C32.0971 42.2188 32.4151 42.0871 32.6495 41.8526C32.8839 41.6182 33.0156 41.3003 33.0156 40.9687V10.1875C33.0156 9.85598 32.8839 9.53804 32.6495 9.30362C32.4151 9.0692 32.0971 8.9375 31.7656 8.9375Z" fill="white"/>
  <path d="M31.7656 8.9375H11.0625C10.731 8.9375 10.413 9.0692 10.1786 9.30362C9.9442 9.53804 9.8125 9.85598 9.8125 10.1875V11.2812H29.4219C29.7534 11.2812 30.0713 11.4129 30.3058 11.6474C30.5402 11.8818 30.6719 12.1997 30.6719 12.5312V42.2188H31.7656C32.0971 42.2188 32.4151 42.0871 32.6495 41.8526C32.8839 41.6182 33.0156 41.3003 33.0156 40.9687V10.1875C33.0156 9.85598 32.8839 9.53804 32.6495 9.30362C32.4151 9.0692 32.0971 8.9375 31.7656 8.9375Z" fill="#DEE0E2"/>
  <g style="mix-blend-mode:darken">
    <path d="M37.4688 13H41.375V38.2344C41.375 38.4088 41.3406 38.5815 41.2739 38.7426C41.2072 38.9038 41.1093 39.0502 40.986 39.1735C40.8627 39.2968 40.7163 39.3947 40.5551 39.4614C40.394 39.5281 40.2213 39.5625 40.0469 39.5625C39.3631 39.5625 38.7074 39.2909 38.2239 38.8074C37.7404 38.3239 37.4687 37.6681 37.4688 36.9844V13Z" fill="#70DBFF"/>
  </g>
  <path d="M31.7656 8.9375H11.0625C10.731 8.9375 10.413 9.0692 10.1786 9.30362C9.9442 9.53804 9.8125 9.85598 9.8125 10.1875V40.9687C9.8125 41.3003 9.9442 41.6182 10.1786 41.8526C10.413 42.0871 10.731 42.2187 11.0625 42.2187H31.7656C32.0971 42.2187 32.4151 42.0871 32.6495 41.8526C32.8839 41.6182 33.0156 41.3003 33.0156 40.9687V10.1875C33.0156 9.85598 32.8839 9.53804 32.6495 9.30362C32.4151 9.0692 32.0971 8.9375 31.7656 8.9375ZM37.3906 13.0781H41.8438V36.2812C41.8438 40.8906 37.3906 40.8906 37.3906 36.2812V13.0781Z" stroke="#013042" stroke-width="2" stroke-miterlimit="10"/>
  <path d="M44.7344 25.4219L44.8125 16.75H37.3906M39.5781 42.2188V39.7188M14.8125 15.6562H21.375M14.8125 21.8281H28.0156M14.8125 25.5H28.0156M14.8125 29.0937H28.0156M14.8125 32.7656H21.375" stroke="#013042" stroke-width="2" stroke-miterlimit="10"/>
  <path d="M50.75 49.5H0.75V51.5H50.75V49.5Z" fill="black" mask="url(#path-1-inside-1_56_4220)"/>
</svg>